<svg xmlns="http://www.w3.org/2000/svg" viewBox="0 0 1000 1000" width="1000" height="1000" role="img" aria-label="Canada Careers — Jobs for every Canadian. Opportunities for all."><title>Canada Careers — Jobs for every Canadian. Opportunities for all.</title>
<rect width="1000" height="1000" fill="#fff"/>
<path fill="#D42E2E" transform="translate(280.0,0) scale(4.4)" d="M50,0 L54,12 L61,8 L57,25 L74,14 L72,25 L86,22 L78,41 L98,45 L90,52 L94,62 L76,62 L80,76 L54,68 L53,100 L47,100 L46,68 L20,76 L24,62 L6,62 L10,52 L2,45 L22,41 L14,22 L28,25 L26,14 L43,25 L39,8 L46,12 L50,0 Z"/>
<clipPath id="ccFigS"><path d="M195,0 H805 V452 Q500,520 195,452 Z"/></clipPath>
<g clip-path="url(#ccFigS)">
<g fill="#1F3A5F" stroke="#fff" stroke-width="8" stroke-linejoin="round"><rect x="276.0" y="336" width="96" height="420" rx="48.0"/><circle cx="324" cy="288" r="38"/></g>
<g fill="#35A8B0" stroke="#fff" stroke-width="8" stroke-linejoin="round"><rect x="628.0" y="348" width="96" height="420" rx="48.0"/><circle cx="676" cy="300" r="38"/></g>
<g fill="#7FB542" stroke="#fff" stroke-width="8" stroke-linejoin="round"><rect x="360.0" y="304" width="104" height="420" rx="52.0"/><circle cx="412" cy="256" r="38"/></g>
<g fill="#F4A62A" stroke="#fff" stroke-width="8" stroke-linejoin="round"><rect x="536.0" y="308" width="104" height="420" rx="52.0"/><circle cx="588" cy="260" r="38"/></g>
<g fill="#1F3A5F" stroke="#fff" stroke-width="8" stroke-linejoin="round"><rect x="448.0" y="286" width="104" height="420" rx="52.0"/><circle cx="500" cy="238" r="38"/></g>
</g>
<path d="M195,452 Q500,520 805,452" fill="none" stroke="#fff" stroke-width="12.8"/>
<path fill="#1F3A5F" d="M195,452 Q500,520 805,452 Q500,562 195,452 Z"/>
<text x="500" y="662" font-family="Montserrat, Arial Black, sans-serif" font-weight="800" font-size="124" letter-spacing="14" fill="#1F3A5F" text-anchor="middle" >CANADA</text>
<text x="500" y="726.8" font-family="Montserrat, Arial Black, sans-serif" font-weight="600" font-size="48" letter-spacing="17" fill="#D42E2E" text-anchor="middle" >CAREERS</text>
<g><path fill="#fff" stroke="#fff" stroke-width="6" stroke-linejoin="round" transform="translate(532.792,594.296) scale(0.36455999999999994)" d="M50,0 L54,12 L61,8 L57,25 L74,14 L72,25 L86,22 L78,41 L98,45 L90,52 L94,62 L76,62 L80,76 L54,68 L53,100 L47,100 L46,68 L20,76 L24,62 L6,62 L10,52 L2,45 L22,41 L14,22 L28,25 L26,14 L43,25 L39,8 L46,12 L50,0 Z"/><path fill="#D42E2E" transform="translate(532.792,594.296) scale(0.36455999999999994)" d="M50,0 L54,12 L61,8 L57,25 L74,14 L72,25 L86,22 L78,41 L98,45 L90,52 L94,62 L76,62 L80,76 L54,68 L53,100 L47,100 L46,68 L20,76 L24,62 L6,62 L10,52 L2,45 L22,41 L14,22 L28,25 L26,14 L43,25 L39,8 L46,12 L50,0 Z"/></g>
<path stroke="#D42E2E" stroke-width="2.4000000000000004" stroke-linecap="round" d="M305.048,710.4799999999999 h-64.80000000000001 M694.952,710.4799999999999 h64.80000000000001"/>
<text x="500" y="784" font-family="Montserrat, Arial Black, sans-serif" font-weight="600" font-size="20" letter-spacing="2.4" fill="#5A6B7E" text-anchor="middle" >JOBS FOR EVERY CANADIAN. OPPORTUNITIES FOR ALL.</text>
<path stroke="#C9D3E0" stroke-width="2" d="M100,822 H900"/>
<g transform="translate(146,846) scale(2)" fill="#1F3A5F" color="#1F3A5F"><path fill-rule="evenodd" d="M9 3h6a2 2 0 0 1 2 2v2h3a2 2 0 0 1 2 2v9a2 2 0 0 1-2 2H4a2 2 0 0 1-2-2V9a2 2 0 0 1 2-2h3V5a2 2 0 0 1 2-2zm0 2v2h6V5H9zM2 12.2h8.5V11h3v1.2H22v1.6h-8.5V15h-3v-1.2H2v-1.6z"/></g>
<text x="170" y="928" font-family="Montserrat, Arial Black, sans-serif" font-weight="600" font-size="14" letter-spacing="1.1" fill="#5A6B7E" text-anchor="middle" >PROFESSIONALS</text>
<path stroke="#C9D3E0" stroke-width="2" d="M252.5,842 V940"/>
<g transform="translate(311,846) scale(2)" fill="#35A8B0" color="#35A8B0"><g fill="none" stroke="currentColor" stroke-width="2" stroke-linecap="round"><circle cx="12" cy="12" r="9.5"/><ellipse cx="12" cy="12" rx="4" ry="9.5"/><path d="M2.5 12h19M4.3 7.5h15.4M4.3 16.5h15.4"/></g></g>
<text x="335" y="928" font-family="Montserrat, Arial Black, sans-serif" font-weight="600" font-size="14" letter-spacing="1.1" fill="#5A6B7E" text-anchor="middle" >NEW IMMIGRANTS</text>
<path stroke="#C9D3E0" stroke-width="2" d="M417.5,842 V940"/>
<g transform="translate(476,846) scale(2)" fill="#F4A62A" color="#F4A62A"><path d="M9.6 2h4.8v4H9.6zM1.6 6.8h20.8v3H1.6zM9 10.6h6v3H9zM5.4 14.4h13.2v2.4H5.4zM6.4 17.6h4v4.4h-4zm7.2 0h4v4.4h-4z"/></g>
<text x="500" y="928" font-family="Montserrat, Arial Black, sans-serif" font-weight="600" font-size="14" letter-spacing="1.1" fill="#5A6B7E" text-anchor="middle" >INDIGENOUS</text>
<path stroke="#C9D3E0" stroke-width="2" d="M582.5,842 V940"/>
<g transform="translate(641,846) scale(2)" fill="#35A8B0" color="#35A8B0"><path d="M11.3 1.3c.7 0 1.3.6 1.3 1.3v8.1h.9V4.2c0-.7.6-1.3 1.3-1.3s1.3.6 1.3 1.3v6.6h.9V6.2c0-.7.6-1.3 1.3-1.3s1.3.6 1.3 1.3v9.6c0 3.9-2.7 6.9-6.6 6.9-3.2 0-4.8-1.5-6.1-3.6L3.4 13.9c-.5-.7-.4-1.6.3-2.1.7-.5 1.6-.3 2.1.3l1.6 2.1V3.7c0-.7.6-1.3 1.3-1.3S10 3 10 3.7v7h.9V2.6c0-.7.6-1.3 1.3-1.3z"/></g>
<text x="665" y="928" font-family="Montserrat, Arial Black, sans-serif" font-weight="600" font-size="14" letter-spacing="1.1" fill="#5A6B7E" text-anchor="middle" >REFUGEES</text>
<path stroke="#C9D3E0" stroke-width="2" d="M747.5,842 V940"/>
<g transform="translate(806,846) scale(2)" fill="#7FB542" color="#7FB542"><path d="M12 2.1l2.53 7.02 7.46.24-5.9 4.57 2.08 7.16L12 16.9l-6.17 4.19 2.08-7.16-5.9-4.57 7.46-.24z"/></g>
<text x="830" y="928" font-family="Montserrat, Arial Black, sans-serif" font-weight="600" font-size="14" letter-spacing="1.1" fill="#5A6B7E" text-anchor="middle" >YOUTH</text>
</svg>